#!OML:ASF \\sashay\E\Suitcase\Project 1\Capture day 1\Session 1\Male1.ASF
:FULLY-SPECIFIED
:DEGREES
1
root -0.161266 17.5153 10.3945 6.85177 -6.81528 -5.82299
lowerback -2.65942 -4.02541 -1.749
upperback -1.74135 -5.38444 6.11265
thorax 0.445259 -2.69857 7.14747
lowerneck -2.43406 -11.4168 -10.205
upperneck 27.4424 -16.7032 5.23241
head 10.5129 -8.34105 1.75387
rclavicle 7.06183e-014 -2.22639e-014
rhumerus -34.3149 -4.29654 -74.4539
rradius 29.1028
rwrist -22.8553
rhand -18.4721 19.2119
rfingers 7.12502
rthumb 7.81468 -10.6237
lclavicle 7.06183e-014 -2.22639e-014
lhumerus -34.3106 10.9838 84.9701
lradius 31.0375
lwrist -5.00687
lhand -1.21527 44.6406
lfingers 7.12502
lthumb 24.4259 73.1034
rfemur -1.68836 6.44834 21.8701
rtibia 6.60478
rfoot -8.48277 -15.9079
rtoes 6.37629
lfemur -4.45724 -3.23436 -11.103
ltibia 17.7921
lfoot -15.7382 11.642
ltoes -1.67327
2
root -0.160253 17.5154 10.3978 6.92671 -6.67498 -5.81003
lowerback -2.60652 -4.04583 -1.63645
upperback -1.9219 -5.40472 6.06428
thorax 0.21674 -2.70014 7.04344
lowerneck -2.14998 -11.5691 -10.4502
upperneck 26.6721 -16.9038 5.46238
head 10.2382 -8.44961 1.87467
rclavicle 5.21064e-014 -3.97569e-015
rhumerus -34.2542 -5.76628 -73.8265
rradius 28.3593
rwrist -21.3675
rhand -18.2431 19.2453
rfingers 7.12502
rthumb 8.0357 -10.5819
lclavicle 5.21064e-014 -3.97569e-015
lhumerus -34.5546 10.549 85.0832
lradius 30.8455
lwrist -4.85417
lhand -1.79002 44.8374
lfingers 7.12502
lthumb 23.8748 73.3735
rfemur -1.66049 6.31016 21.867
rtibia 6.426
rfoot -8.44146 -16.0413
rtoes 6.77908
lfemur -4.58242 -3.26318 -11.1093
ltibia 17.8263
lfoot -13.401 12.0365
ltoes 6.932
3
root -0.172416 17.5141 10.4067 6.95238 -6.76552 -6.01467
lowerback -2.59038 -4.01105 -1.46771
upperback -1.99466 -5.35767 6.05687
thorax 0.110194 -2.67344 6.94659
lowerneck -2.01716 -11.7554 -10.6302
upperneck 25.9973 -17.1158 5.54608
head 10.012 -8.56537 1.92222
rclavicle 9.24224e-014 -5.80451e-014
rhumerus -34.5809 -6.57118 -73.525
rradius 28.0619
rwrist -20.4628
rhand -18.2928 18.9177
rfingers 7.12502
rthumb 7.98779 -10.9114
lclavicle 9.24224e-014 -5.80451e-014
lhumerus -34.7018 10.9849 84.7793
lradius 30.5845
lwrist -5.68299
lhand -1.05679 44.733
lfingers 7.12502
lthumb 24.5778 73.1753
rfemur -1.66611 6.42957 22.1608
rtibia 6.47275
rfoot -8.38821 -15.9925
rtoes 6.45505
lfemur -4.52782 -3.20624 -10.8482
ltibia 17.7898
lfoot -13.3783 12.2467
ltoes 6.32401
4
root -0.175795 17.5155 10.4061 6.9465 -6.6312 -5.85809
lowerback -2.55004 -3.98153 -1.45786
upperback -2.02943 -5.31335 5.85773
thorax 0.0261682 -2.64776 6.73657
lowerneck -2.22009 -12.0419 -10.6345
upperneck 25.5233 -17.4736 5.62142
head 9.91879 -8.71973 1.89495
rclavicle 2.23633e-016 2.38542e-015
rhumerus -34.5847 -6.81104 -73.6724
rradius 27.8057
rwrist -21.4659
rhand -18.6928 18.6798
rfingers 7.12502
rthumb 7.60169 -11.1636
lclavicle 2.23633e-016 2.38542e-015
lhumerus -34.5954 10.8147 84.6375
lradius 30.255
lwrist -5.96884
lhand -0.968941 44.4531
lfingers 7.12502
lthumb 24.662 72.8839
rfemur -1.60706 6.27753 22.0116
rtibia 6.35778
rfoot -8.50439 -16.0101
rtoes 7.094
lfemur -4.57951 -3.20036 -10.9862
ltibia 17.7674
lfoot -13.3475 11.9711
ltoes 6.82173
5
root -0.182432 17.5178 10.4173 6.99564 -6.71768 -5.85622
lowerback -2.71985 -3.87832 -1.42
upperback -2.05705 -5.17631 5.80333
thorax 0.0667277 -2.57887 6.65233
lowerneck -1.99075 -12.0538 -10.5928
upperneck 24.5905 -17.5277 6.0554
head 9.58198 -8.71753 2.06301
rclavicle -3.92972e-014 7.15625e-015
rhumerus -34.5621 -7.02649 -73.5659
rradius 27.3203
rwrist -21.6565
rhand -18.9577 18.4334
rfingers 7.12502
rthumb 7.34602 -11.419
lclavicle -3.92972e-014 7.15625e-015
lhumerus -34.5789 10.3761 84.8065
lradius 29.8878
lwrist -6.02016
lhand -0.971826 44.3893
lfingers 7.12502
lthumb 24.6592 72.8205
rfemur -1.57265 6.36659 22.0296
rtibia 6.24453
rfoot -8.37341 -15.9941
rtoes 6.56627
lfemur -4.60357 -3.21208 -10.979
ltibia 17.7537
lfoot -15.8086 11.5726
ltoes -2.8852
